<?xml version="1.0" encoding="UTF-8"?>
<svg version="1.1" xmlns="http://www.w3.org/2000/svg" width="128" height="128">
<rect width="100%" height="100%" fill="white"/>
<path d="M0 0 C0.53625 0.37125 1.0725 0.7425 1.625 1.125 C1.295 2.445 0.965 3.765 0.625 5.125 C-1.025 5.455 -2.675 5.785 -4.375 6.125 C-3.88 8.6 -3.88 8.6 -3.375 11.125 C-2.78332031 11.06699219 -2.19164062 11.00898438 -1.58203125 10.94921875 C2.88517564 10.694158 4.97627442 10.67089209 8.75 13.3125 C10.625 16.125 10.625 16.125 10.4375 18.9375 C10.169375 19.659375 9.90125 20.38125 9.625 21.125 C7.1875 20.75 7.1875 20.75 4.625 20.125 C4.13 19.135 4.13 19.135 3.625 18.125 C1.975 18.125 0.325 18.125 -1.375 18.125 C-2.035 20.105 -2.695 22.085 -3.375 24.125 C-5.025 24.125 -6.675 24.125 -8.375 24.125 C-9.09711916 21.87840707 -9.50100445 20.54501482 -8.8125 18.25 C-8.17840625 15.17011609 -9.26399489 13.00054263 -10.375 10.125 C-13.16438212 9.70609782 -13.16438212 9.70609782 -16.375 10.125 C-19.20911155 12.458492 -19.20911155 12.458492 -21.375 15.125 C-22.375 16.125 -22.375 16.125 -26.1875 16.25 C-28.38153418 16.41332211 -28.38153418 16.41332211 -30.375 17.125 C-32.41599266 20.13492955 -32.41599266 20.13492955 -33.37109375 22.34375 C-34.98476609 25.2069196 -37.6169173 26.47015038 -40.375 28.125 C-43.40296835 34.1809367 -43.15404322 44.94575261 -41.3125 51.375 C-39.52289036 55.51396502 -37.59624013 57.30549994 -33.375 59.125 C-29.06219746 60.01323195 -24.74937573 60.63174695 -20.375 61.125 C-20.19324219 61.81207031 -20.01148437 62.49914062 -19.82421875 63.20703125 C-19.57285156 64.10808594 -19.32148438 65.00914063 -19.0625 65.9375 C-18.81886719 66.83082031 -18.57523438 67.72414063 -18.32421875 68.64453125 C-16.95203742 72.23027258 -15.34972374 73.65013459 -11.9375 75.3125 C-2.87222072 77.38001984 5.41013699 75.9021402 14.33203125 73.79296875 C18.55499303 72.93635373 22.33439971 72.9030724 26.625 73.125 C27.25 75 27.25 75 27.625 77.125 C25.01633036 79.73366964 23.24288317 79.67003835 19.625 80.1875 C15.48594885 80.71103718 15.48594885 80.71103718 11.625 82.125 C12.346875 83.135625 13.06875 84.14625 13.8125 85.1875 C17.68174846 91.30091256 19.52366612 98.25766204 21.625 105.125 C23.275 105.125 24.925 105.125 26.625 105.125 C26.295 104.465 25.965 103.805 25.625 103.125 C25.45703125 101.25 25.45703125 101.25 25.4375 99.125 C25.42332031 98.42375 25.40914063 97.7225 25.39453125 97 C25.625 95.125 25.625 95.125 27.625 93.125 C29.76171875 93.3671875 29.76171875 93.3671875 32.3125 94 C39.68716639 95.62115511 44.76504431 95.68690007 51.625 92.125 C53.58931405 90.83235301 53.58931405 90.83235301 54.625 89.125 C54.625 87.805 54.625 86.485 54.625 85.125 C48.19 82.155 48.19 82.155 41.625 79.125 C41.955 77.475 42.285 75.825 42.625 74.125 C48.68552308 74.45557399 52.38447262 75.81225611 57.44921875 79.1640625 C60.27083749 80.41023523 61.73096397 80.07692259 64.625 79.125 C70.34989738 73.56848196 71.80621516 67.18453909 71.9375 59.5 C71.92100107 54.95729331 71.22809303 51.37862532 69.625 47.125 C66.71461458 47.15025184 66.71461458 47.15025184 63.625 48.125 C61.69030151 51.07571844 61.69030151 51.07571844 60.625 54.125 C58.6875 53.8125 58.6875 53.8125 56.625 53.125 C55.625 50.125 55.625 50.125 56.75 46.625 C58.72614042 42.93620455 59.83410897 41.73612869 63.625 40.125 C64.615 40.125 65.605 40.125 66.625 40.125 C65.55098892 37.20982708 64.84689824 35.34689824 62.625 33.125 C62.50125 32.465 62.3775 31.805 62.25 31.125 C61.79283884 29.01214061 61.79283884 29.01214061 60 27.8125 C56.58384427 26.82361282 54.05729769 27.31372964 50.625 28.125 C50.08875 28.66125 49.5525 29.1975 49 29.75 C48.54625 30.20375 48.0925 30.6575 47.625 31.125 C44.9375 30.8125 44.9375 30.8125 42.625 30.125 C42.912359 26.67669199 43.38718649 25.36281351 45.875 22.875 C48.58849071 21.14823318 50.46029243 20.48668087 53.625 20.125 C52.20466026 17.28432052 51.23168799 15.47167885 48.4375 13.875 C46.00835114 13.22722697 43.92390103 12.95720009 41.4375 12.75 C40.179375 12.54375 38.92125 12.3375 37.625 12.125 C37.18607422 11.13306641 37.18607422 11.13306641 36.73828125 10.12109375 C36.18720703 9.13302734 36.18720703 9.13302734 35.625 8.125 C33.01271544 7.52914531 33.01271544 7.52914531 30 7.5625 C24.56224764 7.30043965 20.58454227 6.31864369 15.625 4.125 C15.955 2.475 16.285 0.825 16.625 -0.875 C18.74239432 -0.63593935 20.85970168 -0.39608325 22.9765625 -0.15234375 C24.73922156 0.03224149 26.50538301 0.1860295 28.2734375 0.30859375 C36.7979249 0.93577075 36.7979249 0.93577075 40.625 4.125 C40.625 4.785 40.625 5.445 40.625 6.125 C42.11 6.00125 42.11 6.00125 43.625 5.875 C49.42886225 5.88677254 53.96517225 8.46517225 58 12.5 C59.625 15.125 59.625 15.125 60.5625 18.25 C61.34271624 21.29483526 61.34271624 21.29483526 63.98828125 22.51171875 C68.42187974 25.2244242 70.48820799 29.48609348 72.625 34.125 C73.0859375 36.34765625 73.0859375 36.34765625 73.25 38.375 C73.6833776 42.70877595 75.06069271 44.67921207 77.625 48.125 C80.41561785 56.49685355 79.73596003 68.12448219 75.88671875 76.0390625 C72.95961011 80.87830712 70.38518831 84.91178827 64.75 86.5625 C63.71875 86.748125 62.6875 86.93375 61.625 87.125 C61.625 87.970625 61.625 88.81625 61.625 89.6875 C60.14430828 94.7773778 56.92673209 97.19796865 52.625 100.125 C46.083314 102.86061415 39.4226861 102.82442153 32.625 101.125 C32.625 104.095 32.625 107.065 32.625 110.125 C27.24472975 111.31588986 22.17208616 112.4169519 16.625 112.125 C14.84323354 107.49240721 13.22925925 102.86344019 11.75 98.125 C11.05849265 96.11912022 10.35094344 94.11867556 9.625 92.125 C9.33625 91.29613281 9.0475 90.46726562 8.75 89.61328125 C7.60957437 87.13196454 6.81368507 85.77907932 4.625 84.125 C1.06840105 83.44629338 -2.30737442 83.31037057 -5.92578125 83.24609375 C-13.16145276 82.99206678 -18.26899891 80.10942963 -23.375 75.125 C-25.42826875 72.04509688 -25.375 71.02661828 -25.375 67.125 C-25.931875 67.09921875 -26.48875 67.0734375 -27.0625 67.046875 C-34.07579778 66.52561638 -39.57319319 64.8510823 -44.6875 59.875 C-49.11713487 52.65633577 -49.8123971 46.78064836 -49.3125 38.5 C-49.28478516 37.58476563 -49.25707031 36.66953125 -49.22851562 35.7265625 C-48.93295659 29.96524279 -48.12697936 26.5547112 -44.375 22.125 C-41.875 20.125 -41.875 20.125 -39.375 18.125 C-38.02337492 16.13731606 -36.68806433 14.1383653 -35.375 12.125 C-31.7308226 9.6955484 -29.66258728 9.96320425 -25.375 10.125 C-25.065625 9.2278125 -25.065625 9.2278125 -24.75 8.3125 C-22.48993848 4.71694758 -19.22264879 3.59765434 -15.19140625 2.56640625 C-13.64781694 2.23061701 -12.10078916 1.91026022 -10.55078125 1.60546875 C-8.1462493 1.12887339 -8.1462493 1.12887339 -5.0625 -0.125 C-2.375 -0.875 -2.375 -0.875 0 0 Z " fill="#000000" transform="translate(49.375,8.875)"/>
<path d="M0 0 C2.475 0.495 2.475 0.495 5 1 C5.37837838 7.43243243 5.37837838 7.43243243 3.5 10.25 C1.1231527 14.60755339 1.77003761 19.1367212 2 24 C0.125 24.625 0.125 24.625 -2 25 C-4.76223278 22.23776722 -4.57856291 19.79293383 -5 16 C-5.63808594 15.93941406 -6.27617187 15.87882812 -6.93359375 15.81640625 C-7.75988281 15.73261719 -8.58617187 15.64882812 -9.4375 15.5625 C-10.26121094 15.48128906 -11.08492187 15.40007812 -11.93359375 15.31640625 C-14 15 -14 15 -15 14 C-15.04063832 12.33382885 -15.042721 10.66611905 -15 9 C-14.22914062 9.03480469 -13.45828125 9.06960937 -12.6640625 9.10546875 C-11.15972656 9.14607422 -11.15972656 9.14607422 -9.625 9.1875 C-8.62726562 9.22230469 -7.62953125 9.25710937 -6.6015625 9.29296875 C-5.31378906 9.14794922 -5.31378906 9.14794922 -4 9 C-2.00902154 6.01353231 -1.05875074 3.40312738 0 0 Z " fill="#000000" transform="translate(37,53)"/>
<path d="M0 0 C4.69268293 0.63414634 4.69268293 0.63414634 6.3125 2.5625 C7.97326794 4.28168071 7.97326794 4.28168071 10.69921875 4.07421875 C11.68535156 3.94660156 12.67148438 3.81898437 13.6875 3.6875 C14.68136719 3.56761719 15.67523438 3.44773437 16.69921875 3.32421875 C17.45847656 3.21722656 18.21773437 3.11023438 19 3 C19.33 4.65 19.66 6.3 20 8 C15.375 11 15.375 11 12 11 C12.33 12.051875 12.66 13.10375 13 14.1875 C13.83966782 17.38873357 14.19750904 19.7411008 14 23 C11.04938857 23.31898502 9.55901674 23.4433581 7.1875 21.5625 C5.42365362 17.75630517 5.76183363 14.12821704 6 10 C5.37738281 9.69707031 4.75476563 9.39414063 4.11328125 9.08203125 C1.84515479 7.92071696 0.47060751 7.08981067 -1 5 C-0.6875 2.3125 -0.6875 2.3125 0 0 Z " fill="#000000" transform="translate(97,64)"/>
<path d="M0 0 C2.81630676 1.96288047 3.56745613 4.38511876 5.0625 7.4375 C8.21512807 10.59012807 11.80324008 11.37268502 16.0625 12.4375 C16.0625 14.0875 16.0625 15.7375 16.0625 17.4375 C15.06669922 17.36789063 15.06669922 17.36789063 14.05078125 17.296875 C8.28556682 16.97725869 8.28556682 16.97725869 3.1875 19.375 C2.135625 20.3959375 2.135625 20.3959375 1.0625 21.4375 C-1.125 22.25 -1.125 22.25 -2.9375 22.4375 C-3.5975 22.1075 -4.2575 21.7775 -4.9375 21.4375 C-4.4581753 17.12357774 -3.1917015 15.27180453 0.0625 12.4375 C-0.411875 11.9425 -0.88625 11.4475 -1.375 10.9375 C-3.55917907 7.44281349 -3.59663911 4.52783064 -3.9375 0.4375 C-1.9375 -0.5625 -1.9375 -0.5625 0 0 Z " fill="#000000" transform="translate(61.9375,40.5625)"/>
<path d="M0 0 C3.69230769 0.69230769 3.69230769 0.69230769 5 2 C5.45459858 4.65463121 5.70243238 7.32189138 6 10 C10.455 9.505 10.455 9.505 15 9 C15.625 11.375 15.625 11.375 16 14 C13.65637178 16.34362822 12.88875552 16.33446589 9.6875 16.625 C8.88183594 16.70105469 8.07617188 16.77710937 7.24609375 16.85546875 C5 17 5 17 2.25 16.9375 C-0.13098995 16.86544001 -0.13098995 16.86544001 -2.625 18.125 C-3.40875 18.41375 -4.1925 18.7025 -5 19 C-5.99 18.34 -6.98 17.68 -8 17 C-7.75 15.125 -7.75 15.125 -7 13 C-6.34902344 12.73058594 -5.69804687 12.46117187 -5.02734375 12.18359375 C-2.76854609 11.16246114 -2.76854609 11.16246114 -2.20703125 8.65234375 C-2.07683594 7.75644531 -1.94664063 6.86054687 -1.8125 5.9375 C-1.06440678 1.06440678 -1.06440678 1.06440678 0 0 Z " fill="#000000" transform="translate(19,33)"/>
<path d="M0 0 C3.92331434 0.22418939 4.96128088 0.95952092 7.75 3.875 C11.31267122 8.82315447 11.57441955 13.08448635 11 19 C9.6875 22.5 9.6875 22.5 8 25 C7.01 25.33 6.02 25.66 5 26 C4.34 25.67 3.68 25.34 3 25 C3.10699219 24.11957031 3.21398437 23.23914063 3.32421875 22.33203125 C3.44410156 21.17058594 3.56398438 20.00914063 3.6875 18.8125 C3.87892578 17.08966797 3.87892578 17.08966797 4.07421875 15.33203125 C3.97307147 10.79105068 2.33995837 8.43921455 -0.6875 5.1875 C-1.120625 4.795625 -1.55375 4.40375 -2 4 C-1.34 2.68 -0.68 1.36 0 0 Z " fill="#000000" transform="translate(81,42)"/>
<path d="M0 0 C2.875 0.1875 2.875 0.1875 5 1 C4.77581061 4.92331434 4.04047908 5.96128088 1.125 8.75 C-3.42757465 12.02785375 -6.48851452 12.19338546 -12 12 C-14.4375 11.5 -14.4375 11.5 -16 11 C-16.38218767 9.34385343 -16.71395102 7.67542976 -17 6 C-16.67 5.67 -16.34 5.34 -16 5 C-14.43638806 5.05889311 -12.87384735 5.14731049 -11.3125 5.25 C-7.45200011 5.32149074 -5.51186674 5.12138777 -2.6875 2.4375 C-1.800625 1.633125 -0.91375 0.82875 0 0 Z " fill="#000000" transform="translate(68,67)"/>
<path d="M0 0 C4.63328214 0.39265103 6.87214754 1.88615164 10.4375 4.6875 C12.09544245 6.84282519 12.41241783 8.6304488 12.6875 11.3125 C12.3575 11.9725 12.0275 12.6325 11.6875 13.3125 C10.0375 13.3125 8.3875 13.3125 6.6875 13.3125 C6.0275 11.3325 5.3675 9.3525 4.6875 7.3125 C1.7175 6.9825 -1.2525 6.6525 -4.3125 6.3125 C-4.6425 4.9925 -4.9725 3.6725 -5.3125 2.3125 C-3.3125 0.3125 -3.3125 0.3125 0 0 Z " fill="#000000" transform="translate(70.3125,18.6875)"/>
<path d="M0 0 C1.65 0.33 3.3 0.66 5 1 C4.67 2.65 4.34 4.3 4 6 C2.35 5.67 0.7 5.34 -1 5 C-0.67 3.35 -0.34 1.7 0 0 Z " fill="#000000" transform="translate(56,7)"/>
<path d="M0 0 C1.65 0 3.3 0 5 0 C5.33 1.32 5.66 2.64 6 4 C4.125 5.0625 4.125 5.0625 2 6 C1.34 5.67 0.68 5.34 0 5 C0 3.35 0 1.7 0 0 Z " fill="#000000" transform="translate(81,82)"/>
</svg>
